<?xml version="1.0" encoding="UTF-8"?>
<!-- Created with Inkscape (http://www.inkscape.org/) -->
<svg width="232.89" height="390.17" version="1.1" viewBox="0 0 232.89 390.17" xmlns="http://www.w3.org/2000/svg">
 <g transform="translate(-102.28 -28.91)">
  <path d="m130.4 418.1c-13.308-2.9103-23.92-13.783-26.823-27.479-1.7312-8.17-1.7226-324.32 9e-3 -332.49 1.659-7.8298 4.3163-13.072 9.4226-18.587 7.2851-7.8688 16.045-11.285 27.008-10.534 14.421 0.98843 25.291 9.9846 30.003 24.83l1.9809 6.2413v59.159c0 32.537 0.10731 59.159 0.23848 59.159s4.0086-3.7022 8.6164-8.227c13.376-13.135 27.763-21.647 43.945-26.001 6.7707-1.8215 9.1714-2.0503 22-2.0968 15.982-0.0579 20.837 0.71374 32.295 5.1322 13.001 5.0135 27.459 16.86 36.091 29.571 7.5744 11.154 13.923 28.136 16.755 44.821 2.9182 17.192 3.2433 26.834 3.2376 96-6e-3 74.325 7e-3 74.102-4.8394 83.194-6.7379 12.642-21.55 20.125-35.109 17.736-12.716-2.2398-22.357-9.9076-27.367-21.765-1.7495-4.1408-1.8658-5.5975-2.2538-28.233l-0.40911-23.866-12.497-4.8227-3.8987 1.6772c-11.336 4.8768-29.92 6.8575-42.961 4.579-9.2613-1.6183-18.871-5.0981-26.826-9.7137-3.3999-1.9728-6.3699-3.587-6.6-3.587-0.2301 0-0.41837 12.904-0.41837 28.675 0 26.613-0.11529 29.01-1.6037 33.336-4.2633 12.391-12.392 19.821-25.393 23.207-5.3175 1.385-8.575 1.4042-14.603 0.086zm146.03-100.3c-1.4626-4.29-3.6028-10.375-4.7561-13.522l-2.0969-5.7218 3.1461-5.8782c5.3923-10.075 6.8605-16.212 6.8605-28.678 0-9.0695-0.29928-11.761-1.8678-16.8-5.2071-16.727-15.811-29.373-30.921-36.873-8.312-4.1262-13.409-5.456-23.215-6.0562-18.359-1.1237-34.504 5.488-47.573 19.482-10.128 10.845-15.49 24.796-15.469 40.247 0.0131 9.8616 1.9685 18.097 6.3602 26.788 11.039 21.846 35.917 35.416 59.505 32.458 8.6485-1.0844 12.043-2.0239 19.192-5.3111l6-2.759 13.2 5.1412c7.26 2.8277 13.446 5.173 13.747 5.2119 0.30088 0.0388-0.64958-3.4394-2.1121-7.7294z" fill="#1a7544"/>
 </g>
</svg>
